<?xml version="1.0" standalone="no"?>
<!DOCTYPE svg PUBLIC "-//W3C//DTD SVG 20010904//EN"
 "http://www.w3.org/TR/2001/REC-SVG-20010904/DTD/svg10.dtd">
<svg version="1.0" xmlns="http://www.w3.org/2000/svg"
 width="700.000000pt" height="700.000000pt" viewBox="0 0 700.000000 700.000000"
 preserveAspectRatio="xMidYMid meet">
<metadata>
Created by potrace 1.14, written by Peter Selinger 2001-2017
</metadata>
<g transform="translate(0.000000,700.000000) scale(0.100000,-0.100000)"
fill="#000000" stroke="none">
<path d="M0 3500 l0 -3500 3500 0 3500 0 0 3500 0 3500 -3500 0 -3500 0 0
-3500z m3537 2697 c13 -7 368 -543 789 -1192 801 -1232 846 -1307 913 -1515
69 -214 96 -410 88 -640 -6 -164 -20 -261 -62 -418 -164 -617 -666 -1116
-1290 -1282 -164 -44 -289 -60 -475 -60 -297 0 -520 50 -790 177 -520 245
-896 731 -1010 1308 -28 140 -38 411 -21 552 26 211 84 408 171 586 62 128
1580 2466 1612 2484 29 16 47 16 75 0z"/>
</g>
</svg>
